<svg xmlns="http://www.w3.org/2000/svg" width="945.63" height="75.27" viewBox="0 0 945.63 75.27">
  <g id="Waves" transform="translate(0 -1714.085)">
    <g id="Waves-2" data-name="Waves" transform="translate(1.478 1714.085)">
      <path id="Path_3" data-name="Path 3" d="M84.618-379.974c-4.231,1.739-6.511,4.339-10.308,11.83-8.683,17.144-21.272,29.3-35.486,34.077a89.51,89.51,0,0,1-13.347,2.714c-9.55,1.192-12.805,3.364-14.761,9.983-1.084,3.364-.975,4.664.758,8.25,3.147,6.294,7.708,8.25,17.8,7.27,19.208-1.63,33.1-8.466,48.621-23.877l11.072-11.067,4.886,6.294c16.061,20.947,37.224,31.688,55.132,28.216,15.628-3.039,34.836-16.6,48.4-34.186l2.5-3.256,3.364,4.339c11.722,14.977,26.483,27.241,37.333,31.147,8.683,3.147,20.513,3.039,28.541-.108,11.505-4.669,26.158-16.278,38.416-30.28l4.122-4.777,1.63,2.389c13.13,18.775,31.255,31.905,47.971,34.836,18.341,3.256,38.2-5.861,56.324-25.719l7.378-8.141,6.294,8.141c7.486,9.767,14.869,15.953,24.852,20.73,8.141,4.014,20.622,6.619,26.261,5.536,5.1-.975,10.308-7.161,10.308-12.155,0-8.358-4.664-12.589-15.086-13.781-13.894-1.63-24.852-11.072-33.319-28.758-2.714-5.753-5.536-11.722-6.186-13.13-3.147-6.4-12.48-9.117-18.45-5.211-1.409.867-4.777,5.428-7.491,10.092-11.067,19.208-24.2,32.122-36.249,35.924-7.816,2.389-15.411.975-23.985-4.669-7.161-4.886-17.474-17.366-23.552-28.866a69.706,69.706,0,0,0-6.4-10.308,12.217,12.217,0,0,0-13.347-3.364c-3.472,1.192-5.319,3.039-11.288,11.722-9.875,14.436-24.636,29.521-32.885,33.644-3.581,1.739-8.033,3.256-9.983,3.256-9.008,0-23.877-12.7-34.186-29.191-11.18-17.908-11.18-17.908-15.953-19.425-7.486-2.389-11.18.108-20.183,13.672-8.9,13.239-21.814,26.7-30.063,31.147-7.27,3.906-15.628,4.339-22.03,1.192-9.442-4.669-20.4-17.8-29.408-35.052-2.28-4.339-5.211-8.466-6.511-9.333C92.755-380.516,87.765-381.28,84.618-379.974Z" transform="translate(-10.014 380.658)" fill="#525e75"/>
    </g>
    <g id="Waves-3" data-name="Waves" transform="translate(454.595 1714.085)">
      <path id="Path_3-2" data-name="Path 3" d="M84.618-379.974c-4.231,1.739-6.511,4.339-10.308,11.83-8.683,17.144-21.272,29.3-35.486,34.077a89.51,89.51,0,0,1-13.347,2.714c-9.55,1.192-12.805,3.364-14.761,9.983-1.084,3.364-.975,4.664.758,8.25,3.147,6.294,7.708,8.25,17.8,7.27,19.208-1.63,33.1-8.466,48.621-23.877l11.072-11.067,4.886,6.294c16.061,20.947,37.224,31.688,55.132,28.216,15.628-3.039,34.836-16.6,48.4-34.186l2.5-3.256,3.364,4.339c11.722,14.977,26.483,27.241,37.333,31.147,8.683,3.147,20.513,3.039,28.541-.108,11.505-4.669,26.158-16.278,38.416-30.28l4.122-4.777,1.63,2.389c13.13,18.775,31.255,31.905,47.971,34.836,18.341,3.256,38.2-5.861,56.324-25.719l7.378-8.141,6.294,8.141c7.486,9.767,14.869,15.953,24.852,20.73,8.141,4.014,20.622,6.619,26.261,5.536,5.1-.975,10.308-7.161,10.308-12.155,0-8.358-4.664-12.589-15.086-13.781-13.894-1.63-24.852-11.072-33.319-28.758-2.714-5.753-5.536-11.722-6.186-13.13-3.147-6.4-12.48-9.117-18.45-5.211-1.409.867-4.777,5.428-7.491,10.092-11.067,19.208-24.2,32.122-36.249,35.924-7.816,2.389-15.411.975-23.985-4.669-7.161-4.886-17.474-17.366-23.552-28.866a69.706,69.706,0,0,0-6.4-10.308,12.217,12.217,0,0,0-13.347-3.364c-3.472,1.192-5.319,3.039-11.288,11.722-9.875,14.436-24.636,29.521-32.885,33.644-3.581,1.739-8.033,3.256-9.983,3.256-9.008,0-23.877-12.7-34.186-29.191-11.18-17.908-11.18-17.908-15.953-19.425-7.486-2.389-11.18.108-20.183,13.672-8.9,13.239-21.814,26.7-30.063,31.147-7.27,3.906-15.628,4.339-22.03,1.192-9.442-4.669-20.4-17.8-29.408-35.052-2.28-4.339-5.211-8.466-6.511-9.333C92.755-380.516,87.765-381.28,84.618-379.974Z" transform="translate(-10.014 380.658)" fill="#525e75"/>
    </g>
    <rect id="Rectangle_4" data-name="Rectangle 4" width="945.63" height="22.163" transform="translate(0 1763.787)" fill="#525e75"/>
    <rect id="Rectangle_5" data-name="Rectangle 5" width="35.954" height="22.163" transform="translate(54.669 1745.564)" fill="#525e75"/>
    <rect id="Rectangle_6" data-name="Rectangle 6" width="35.954" height="22.163" transform="translate(173.858 1745.564)" fill="#525e75"/>
    <rect id="Rectangle_7" data-name="Rectangle 7" width="35.954" height="22.163" transform="translate(284.182 1745.564)" fill="#525e75"/>
    <rect id="Rectangle_8" data-name="Rectangle 8" width="35.954" height="22.163" transform="translate(398.938 1745.564)" fill="#525e75"/>
    <rect id="Rectangle_9" data-name="Rectangle 9" width="35.954" height="22.163" transform="translate(513.694 1745.564)" fill="#525e75"/>
    <rect id="Rectangle_10" data-name="Rectangle 10" width="35.954" height="22.163" transform="translate(626.972 1745.564)" fill="#525e75"/>
    <rect id="Rectangle_11" data-name="Rectangle 11" width="35.954" height="22.163" transform="translate(740.251 1745.564)" fill="#525e75"/>
    <rect id="Rectangle_12" data-name="Rectangle 12" width="35.954" height="22.163" transform="translate(851.56 1748.027)" fill="#525e75"/>
  </g>
</svg>
