<svg xmlns="http://www.w3.org/2000/svg" width="1261.456" height="1267.213" viewBox="0 0 1261.456 1267.213">
  <path id="Icon_ionic-ios-water" data-name="Icon ionic-ios-water" d="M628.761,242.49C545.178,124.405,464.754,51.757,408.141,7.778a20.782,20.782,0,0,0-25.269-.243C326.988,49.084,246.564,125.134,162.982,242,72.353,368.35,9.909,505.387,6.993,657.245c0,2.916-.243,6.074-.243,8.99A317.537,317.537,0,0,0,33.234,792.824a341.4,341.4,0,0,0,36.932,63.9c69.247,94.759,189.033,157.446,325.1,157.446,214.788,0,389-155.746,389-347.937C784.263,511.461,718.661,369.322,628.761,242.49ZM419.8,884.668h-1.215c-24.054,0-29.157-34.259-6.317-41.548C521.853,808.617,581.381,749.575,622.2,646.8c8.5-21.625,40.576-15.793,40.819,7.532v3.4C662.777,783.105,553.925,884.668,419.8,884.668Z" transform="matrix(0.719, -0.695, 0.695, 0.719, -7.199, 542.368)" fill="#9d9d9d" opacity="0.32"/>
</svg>
