<svg xmlns="http://www.w3.org/2000/svg" width="86.268" height="60.291" viewBox="0 0 86.268 60.291">
  <path id="Icon_simple-youtube" data-name="Icon simple-youtube" d="M84.474,14.734a10.813,10.813,0,0,0-7.508-7.508c-6.724-1.8-33.786-1.8-33.786-1.8s-26.994-.036-33.786,1.8a10.813,10.813,0,0,0-7.508,7.508A112.359,112.359,0,0,0,.008,35.607,112.358,112.358,0,0,0,1.885,56.4,10.813,10.813,0,0,0,9.393,63.91c6.717,1.805,33.786,1.805,33.786,1.805s26.99,0,33.786-1.805A10.813,10.813,0,0,0,84.474,56.4a112.359,112.359,0,0,0,1.8-20.795,112.358,112.358,0,0,0-1.8-20.874ZM34.542,48.52V22.655L57.067,35.607Z" transform="translate(-0.007 -5.424)" fill="#9d9d9d"/>
</svg>
