<svg xmlns="http://www.w3.org/2000/svg" width="72.957" height="72.954" viewBox="0 0 72.957 72.954">
  <path id="Icon_simple-github" data-name="Icon simple-github" d="M36.478.445C16.324.445,0,17.193,0,37.849A37.325,37.325,0,0,0,24.942,73.335c1.824.352,2.493-.8,2.493-1.8,0-.888-.03-3.242-.046-6.359C17.242,67.435,15.1,60.16,15.1,60.16c-1.66-4.317-4.058-5.47-4.058-5.47-3.3-2.319.255-2.272.255-2.272,3.663.262,5.587,3.853,5.587,3.853,3.253,5.72,8.539,4.068,10.624,3.111a8.052,8.052,0,0,1,2.31-5c-8.1-.935-16.616-4.152-16.616-18.483a14.635,14.635,0,0,1,3.754-10.037c-.41-.944-1.642-4.747.319-9.9,0,0,3.055-1,10.032,3.834a33.572,33.572,0,0,1,18.239,0c6.931-4.837,9.986-3.834,9.986-3.834a13.989,13.989,0,0,1,.365,9.9,14.7,14.7,0,0,1,3.739,10.037c0,14.369-8.527,17.533-16.643,18.452,1.277,1.122,2.462,3.416,2.462,6.92,0,5.006-.046,9.027-.046,10.242,0,.982.638,2.151,2.508,1.777A37.2,37.2,0,0,0,72.957,37.849c0-20.656-16.333-37.4-36.478-37.4" transform="translate(0 -0.445)" fill="#9d9d9d"/>
</svg>
